# xmcd
#
# Track frame offsets:
#	183
#	17583
#	30568
#
# Disc length: 563 seconds
#
# Revision: 1
# Processed by: cddbd v1.5.2PL0 Copyright (c) Steve Scherf et al.
# Submitted via: audiograbber 1.83.01
#
DISCID=16023103
DTITLE=The Notting Hillbillies - Will You Miss Me
DYEAR=1990
DGENRE=Blues
TTITLE0=Will You Miss Me
TTITLE1=That's Where I Belong
TTITLE2=Lonesome Wind Blues
EXTD=
EXTT0=
EXTT1=
EXTT2=
PLAYORDER=
